<svg xmlns="http://www.w3.org/2000/svg" viewBox="0 0 100 100" width="100" height="100" role="img" aria-label="Fukushima Kaito Portfolio Icon">
  <title>Fukushima Kaito's Page Icon</title>
  <defs>
    <clipPath id="c">
      <circle cx="50" cy="50" r="49"/>
    </clipPath>
    <path id="f" d="M20 90l10-80h25l-1.9 15h-12L39 42h13l-1.9 15h-12.9L33 90H20z"/>
    <path id="k" d="M50 90l10-80h13l-4.4 35 20-35h12.4L78 50l20 40H85l-18.6-35L63 90H50z"/>
  </defs>

  <circle cx="50" cy="50" r="49" fill="#000"/>

  <g clip-path="url(#c)" fill="none" stroke="#fff" stroke-width="0.2" opacity="0.5">
    <path d="M-10 90L90-10M10 100l100-110M10 120l110-110M40 130l100-100M20-20l100 100M0 0l100 100M-20 40l100 100M40-20l100 100M10-20L60 120M80-20L30 120M-10 50l120 20M110 30L-10 60"/>
  </g>

  <g fill="none" stroke="#fff" stroke-width="1" opacity="0.4" transform="translate(1.5,-1.5)">
    <use href="#f"/>
    <use href="#k"/>
  </g>

  <g stroke="#fff" stroke-width="1.2" stroke-linejoin="round">
    <use href="#f" fill="#fff" fill-opacity="0.1"/>
    <use href="#k" fill="none"/>
  </g>
</svg>